<svg width="95" height="97" viewBox="0 0 95 97" fill="none" xmlns="http://www.w3.org/2000/svg">
<circle cx="47.5203" cy="48" r="35" stroke="#0071F5" stroke-width="2"/>
<path d="M59.5203 48.5C59.5203 61.2737 58.0159 72.8004 55.6059 81.1017C54.3989 85.2589 52.9809 88.5504 51.4506 90.7799C49.8985 93.0411 48.3842 94 47.0203 94C45.6563 94 44.142 93.0411 42.5899 90.7799C41.0596 88.5504 39.6416 85.2589 38.4347 81.1017C36.0246 72.8004 34.5203 61.2737 34.5203 48.5C34.5203 35.7263 36.0246 24.1996 38.4347 15.8983C39.6416 11.7411 41.0596 8.44955 42.5899 6.22011C44.142 3.95886 45.6563 3 47.0203 3C48.3842 3 49.8985 3.95886 51.4506 6.22011C52.9809 8.44955 54.3989 11.7411 55.6059 15.8983C58.0159 24.1996 59.5203 35.7263 59.5203 48.5Z" stroke="#0071F5" stroke-width="2"/>
<path d="M53.2702 37.6747C64.3325 44.0615 73.5628 51.1277 79.5468 57.3655C82.5437 60.4894 84.6852 63.3632 85.8508 65.8032C87.0331 68.278 87.1063 70.0688 86.4243 71.25C85.7424 72.4312 84.1548 73.2632 81.4205 73.4767C78.7246 73.6873 75.165 73.2696 70.9612 72.2362C62.5672 70.1727 51.8325 65.7122 40.7702 59.3253C29.7078 52.9385 20.4776 45.8723 14.4935 39.6345C11.4967 36.5106 9.35516 33.6368 8.18955 31.1968C7.00731 28.722 6.93405 26.9312 7.61603 25.75C8.298 24.5688 9.88553 23.7368 12.6199 23.5233C15.3158 23.3127 18.8753 23.7304 23.0791 24.7638C31.4732 26.8273 42.2078 31.2878 53.2702 37.6747Z" stroke="#0071F5" stroke-width="2"/>
<circle cx="47.0203" cy="3.5" r="3.5" fill="#0071F5"/>
<circle cx="47.0203" cy="93.5" r="3.5" fill="#0071F5"/>
<circle cx="8.02026" cy="25.5" r="3.5" fill="#0071F5"/>
<circle cx="87.0203" cy="70.5" r="3.5" fill="#0071F5"/>
<line x1="62.0203" y1="29.5" x2="62.0203" y2="70.5" stroke="#0071F5" stroke-width="9" stroke-linecap="round"/>
<line x1="40.0203" y1="29.5" x2="40.0203" y2="70.5" stroke="#0071F5" stroke-width="9" stroke-linecap="round"/>
<line x1="78.0203" y1="29.5" x2="47.0203" y2="29.5" stroke="#0071F5" stroke-width="9" stroke-linecap="round"/>
</svg>
